<svg xmlns="http://www.w3.org/2000/svg" version="1.1" width="800px" height="800px" viewBox="0 0 1024 1024" class="icon"><metadata><rdf:RDF xmlns:rdf="http://www.w3.org/1999/02/22-rdf-syntax-ns#" xmlns:dc="http://purl.org/dc/elements/1.1/"><rdf:Description><dc:creator>RealFaviconGenerator</dc:creator><dc:source>https://realfavicongenerator.net</dc:source></rdf:Description></rdf:RDF></metadata><path d="M729.6 626.56S666.24 481.28 536.96 490.24c-1.28 0-152.96-4.48-179.84 189.44 0-1.28-161.28-15.36-172.16 106.24 1.28 0.64-12.8 156.8 190.72 143.36l445.44 0.768s179.84-75.264 106.88-220.16-198.4-83.328-198.4-83.328z" fill="#FFFFFF"></path><path d="M739.968 413.184c0 47.872-9.856 93.568-27.648 134.912-6.144 14.336-13.312 28.16-21.248 41.472-29.184-49.28-82.944-82.432-144.128-82.432-90.368 0-164.096 71.936-167.296 161.408-0.128 2.048-0.128 3.968-0.128 6.016v0.512c0 2.048 0 4.096 0.128 6.144 0.64 14.592-13.952 25.088-27.52 20.224-1.792-0.64-3.328-1.28-5.12-1.792h-0.256c-0.512-0.256-1.024-0.256-1.664-0.512s-1.28-0.256-1.792-0.512c-1.28-0.256-2.304-0.64-3.584-0.896-7.168-1.664-14.592-2.56-22.144-2.816-26.88-0.512-51.712 8.832-71.04 24.704-12.928-6.4-25.344-13.568-37.248-21.504C116.992 637.056 56.192 532.352 56.192 413.184c0-188.8 153.088-341.76 341.888-341.76 188.8 0 341.888 152.96 341.888 341.76z m0 0" fill="#FFBC00"></path></svg>